<svg width="66" height="65" viewBox="0 0 66 65" fill="none" xmlns="http://www.w3.org/2000/svg">
<rect width="66" height="65" fill="#F5F5F5"/>
<g clip-path="url(#clip0_0_1)">
<rect x="-297.965" y="-56" width="375" height="848" rx="40" fill="white"/>
<g filter="url(#filter0_d_0_1)">
<rect x="12.0349" y="8" width="45" height="45" rx="15" fill="white"/>
<rect x="12.0849" y="8.05" width="44.9" height="44.9" rx="14.95" stroke="#A74BFF" stroke-width="0.1"/>
</g>
<path d="M34.5575 20.2737C30.8337 20.2737 27.8074 23.3 27.8074 27.0237V30.275C27.8074 30.9612 27.5149 32.0075 27.1662 32.5925L25.8725 34.7412C25.0737 36.0687 25.625 37.5425 27.0875 38.0375C31.9362 39.6575 37.1674 39.6575 42.0162 38.0375C43.3774 37.5875 43.9737 35.9787 43.2312 34.7412L41.9374 32.5925C41.5999 32.0075 41.3075 30.9612 41.3075 30.275V27.0237C41.3075 23.3112 38.27 20.2737 34.5575 20.2737Z" stroke="#292D32" stroke-width="1.5" stroke-miterlimit="10" stroke-linecap="round"/>
<path d="M36.6387 20.6C36.2899 20.4987 35.9299 20.42 35.5587 20.375C34.4787 20.24 33.4437 20.3187 32.4762 20.6C32.8024 19.7675 33.6124 19.1825 34.5574 19.1825C35.5024 19.1825 36.3124 19.7675 36.6387 20.6Z" stroke="#292D32" stroke-width="1.5" stroke-miterlimit="10" stroke-linecap="round" stroke-linejoin="round"/>
<path d="M37.9324 38.4425C37.9324 40.2988 36.4136 41.8175 34.5574 41.8175C33.6349 41.8175 32.7799 41.435 32.1724 40.8275C31.5649 40.22 31.1824 39.365 31.1824 38.4425" stroke="#292D32" stroke-width="1.5" stroke-miterlimit="10"/>
<circle cx="39.9912" cy="24.7062" r="6.09375" fill="#F82929" stroke="white" stroke-width="0.975"/>
<path d="M38.9238 26.6639C38.9238 26.9055 39.011 27.0934 39.1855 27.2277C39.3667 27.3552 39.6116 27.4189 39.9203 27.4189C40.2357 27.4189 40.4941 27.3082 40.6954 27.0867C40.8968 26.8653 40.9974 26.5734 40.9974 26.211C40.9974 25.4459 40.6518 25.0634 39.9606 25.0634C39.8331 25.0634 39.6016 25.1003 39.266 25.1742C38.9372 25.2413 38.6621 25.2748 38.4406 25.2748C38.2259 25.2748 38.0245 25.2345 37.8366 25.154C37.991 24.2615 38.0682 23.4159 38.0682 22.6173C38.0682 22.0738 38.3668 21.802 38.9641 21.802C40.2257 21.802 41.2055 21.7013 41.9034 21.5C41.9839 21.7684 42.0242 22.01 42.0242 22.2248C42.0242 22.4395 41.9436 22.6073 41.7826 22.7281C41.6282 22.8422 41.4303 22.8992 41.1887 22.8992C40.9538 22.8992 40.6015 22.8757 40.1317 22.8287C39.662 22.775 39.3768 22.7448 39.2761 22.7381C39.1956 23.1072 39.1553 23.6374 39.1553 24.3286C39.6385 24.2279 40.0076 24.1776 40.2626 24.1776C40.88 24.1776 41.3799 24.3252 41.7625 24.6205C42.145 24.9158 42.3362 25.3453 42.3362 25.909C42.3362 26.6405 42.0611 27.2344 41.5108 27.6907C40.9672 28.1403 40.3096 28.3651 39.5378 28.3651C39.0211 28.3651 38.5748 28.2611 38.199 28.0531C37.8299 27.845 37.6454 27.533 37.6454 27.1169C37.6454 26.8485 37.736 26.6337 37.9172 26.4727C38.0984 26.3116 38.3265 26.2311 38.6017 26.2311C38.7493 26.2311 38.8802 26.2479 38.9943 26.2814C38.9473 26.4156 38.9238 26.5432 38.9238 26.6639Z" fill="white"/>
</g>
<defs>
<filter id="filter0_d_0_1" x="0.0349121" y="0" width="65" height="65" filterUnits="userSpaceOnUse" color-interpolation-filters="sRGB">
<feFlood flood-opacity="0" result="BackgroundImageFix"/>
<feColorMatrix in="SourceAlpha" type="matrix" values="0 0 0 0 0 0 0 0 0 0 0 0 0 0 0 0 0 0 127 0" result="hardAlpha"/>
<feOffset dx="-2" dy="2"/>
<feGaussianBlur stdDeviation="5"/>
<feComposite in2="hardAlpha" operator="out"/>
<feColorMatrix type="matrix" values="0 0 0 0 0 0 0 0 0 0 0 0 0 0 0 0 0 0 0.05 0"/>
<feBlend mode="normal" in2="BackgroundImageFix" result="effect1_dropShadow_0_1"/>
<feBlend mode="normal" in="SourceGraphic" in2="effect1_dropShadow_0_1" result="shape"/>
</filter>
<clipPath id="clip0_0_1">
<rect x="-297.965" y="-56" width="375" height="848" rx="40" fill="white"/>
</clipPath>
</defs>
</svg>
