<svg width="19" height="18" viewBox="0 0 19 18" fill="none" xmlns="http://www.w3.org/2000/svg">
<rect width="19" height="18" fill="#F5F5F5"/>
<g clip-path="url(#clip0_0_1)">
<rect x="-224.93" y="-484" width="375" height="848" rx="40" fill="white"/>
<rect x="-29.9303" y="-13" width="160" height="45" rx="10" fill="white"/>
<rect x="-29.4303" y="-12.5" width="159" height="44" rx="9.5" stroke="#3D3989" stroke-opacity="0.1"/>
<path d="M16.5472 13.7475C16.5472 14.0175 16.4872 14.295 16.3597 14.565C16.2322 14.835 16.0672 15.09 15.8497 15.33C15.4822 15.735 15.0772 16.0275 14.6197 16.215C14.1697 16.4025 13.6822 16.5 13.1572 16.5C12.3922 16.5 11.5747 16.32 10.7122 15.9525C9.8497 15.585 8.9872 15.09 8.1322 14.4675C7.2697 13.8375 6.4522 13.14 5.6722 12.3675C4.8997 11.5875 4.2022 10.77 3.5797 9.915C2.9647 9.06 2.4697 8.205 2.1097 7.3575C1.7497 6.5025 1.5697 5.685 1.5697 4.905C1.5697 4.395 1.6597 3.9075 1.8397 3.4575C2.0197 3 2.3047 2.58 2.7022 2.205C3.1822 1.7325 3.7072 1.5 4.2622 1.5C4.4722 1.5 4.6822 1.545 4.8697 1.635C5.0647 1.725 5.2372 1.86 5.3722 2.055L7.1122 4.5075C7.2472 4.695 7.3447 4.8675 7.4122 5.0325C7.4797 5.19 7.5172 5.3475 7.5172 5.49C7.5172 5.67 7.4647 5.85 7.3597 6.0225C7.2622 6.195 7.1197 6.375 6.9397 6.555L6.3697 7.1475C6.2872 7.23 6.2497 7.3275 6.2497 7.4475C6.2497 7.5075 6.2572 7.56 6.2722 7.62C6.2947 7.68 6.3172 7.725 6.3322 7.77C6.4672 8.0175 6.6997 8.34 7.0297 8.73C7.3672 9.12 7.7272 9.5175 8.1172 9.915C8.5222 10.3125 8.9122 10.68 9.3097 11.0175C9.6997 11.3475 10.0222 11.5725 10.2772 11.7075C10.3147 11.7225 10.3597 11.745 10.4122 11.7675C10.4722 11.79 10.5322 11.7975 10.5997 11.7975C10.7272 11.7975 10.8247 11.7525 10.9072 11.67L11.4772 11.1075C11.6647 10.92 11.8447 10.7775 12.0172 10.6875C12.1897 10.5825 12.3622 10.53 12.5497 10.53C12.6922 10.53 12.8422 10.56 13.0072 10.6275C13.1722 10.695 13.3447 10.7925 13.5322 10.92L16.0147 12.6825C16.2097 12.8175 16.3447 12.975 16.4272 13.1625C16.5022 13.35 16.5472 13.5375 16.5472 13.7475Z" stroke="#10011C" stroke-width="1.5" stroke-miterlimit="10"/>
</g>
<defs>
<clipPath id="clip0_0_1">
<rect x="-224.93" y="-484" width="375" height="848" rx="40" fill="white"/>
</clipPath>
</defs>
</svg>
