<svg width="61" height="60" viewBox="0 0 61 60" fill="none" xmlns="http://www.w3.org/2000/svg">
<rect width="61" height="60" fill="#F5F5F5"/>
<g clip-path="url(#clip0_0_1)">
<rect x="-297.965" y="-131" width="375" height="848" rx="40" fill="white"/>
<g filter="url(#filter0_d_0_1)">
<rect x="-273.965" y="2" width="335" height="53" rx="10" fill="white"/>
<rect x="-273.915" y="2.05" width="334.9" height="52.9" rx="9.95" stroke="#A74BFF" stroke-width="0.1"/>
</g>
<g filter="url(#filter1_d_0_1)">
<rect x="12.0349" y="8" width="40" height="40" rx="10" fill="white"/>
</g>
<path d="M26.5349 38V31" stroke="#A74BFF" stroke-width="1.5" stroke-miterlimit="10" stroke-linecap="round" stroke-linejoin="round"/>
<path d="M26.5349 21V18" stroke="#A74BFF" stroke-width="1.5" stroke-miterlimit="10" stroke-linecap="round" stroke-linejoin="round"/>
<path d="M37.5349 38V35" stroke="#A74BFF" stroke-width="1.5" stroke-miterlimit="10" stroke-linecap="round" stroke-linejoin="round"/>
<path d="M37.5349 25V18" stroke="#A74BFF" stroke-width="1.5" stroke-miterlimit="10" stroke-linecap="round" stroke-linejoin="round"/>
<path d="M29.5349 23V29C29.5349 30.1 29.0349 31 27.5349 31H25.5349C24.0349 31 23.5349 30.1 23.5349 29V23C23.5349 21.9 24.0349 21 25.5349 21H27.5349C29.0349 21 29.5349 21.9 29.5349 23Z" stroke="#A74BFF" stroke-width="1.5" stroke-miterlimit="10" stroke-linecap="round" stroke-linejoin="round"/>
<path d="M40.5349 27V33C40.5349 34.1 40.0349 35 38.5349 35H36.5349C35.0349 35 34.5349 34.1 34.5349 33V27C34.5349 25.9 35.0349 25 36.5349 25H38.5349C40.0349 25 40.5349 25.9 40.5349 27Z" stroke="#A74BFF" stroke-width="1.5" stroke-miterlimit="10" stroke-linecap="round" stroke-linejoin="round"/>
</g>
<defs>
<filter id="filter0_d_0_1" x="-285.965" y="-6" width="355" height="73" filterUnits="userSpaceOnUse" color-interpolation-filters="sRGB">
<feFlood flood-opacity="0" result="BackgroundImageFix"/>
<feColorMatrix in="SourceAlpha" type="matrix" values="0 0 0 0 0 0 0 0 0 0 0 0 0 0 0 0 0 0 127 0" result="hardAlpha"/>
<feOffset dx="-2" dy="2"/>
<feGaussianBlur stdDeviation="5"/>
<feComposite in2="hardAlpha" operator="out"/>
<feColorMatrix type="matrix" values="0 0 0 0 0 0 0 0 0 0 0 0 0 0 0 0 0 0 0.05 0"/>
<feBlend mode="normal" in2="BackgroundImageFix" result="effect1_dropShadow_0_1"/>
<feBlend mode="normal" in="SourceGraphic" in2="effect1_dropShadow_0_1" result="shape"/>
</filter>
<filter id="filter1_d_0_1" x="0.0349121" y="0" width="60" height="60" filterUnits="userSpaceOnUse" color-interpolation-filters="sRGB">
<feFlood flood-opacity="0" result="BackgroundImageFix"/>
<feColorMatrix in="SourceAlpha" type="matrix" values="0 0 0 0 0 0 0 0 0 0 0 0 0 0 0 0 0 0 127 0" result="hardAlpha"/>
<feOffset dx="-2" dy="2"/>
<feGaussianBlur stdDeviation="5"/>
<feComposite in2="hardAlpha" operator="out"/>
<feColorMatrix type="matrix" values="0 0 0 0 0 0 0 0 0 0 0 0 0 0 0 0 0 0 0.05 0"/>
<feBlend mode="normal" in2="BackgroundImageFix" result="effect1_dropShadow_0_1"/>
<feBlend mode="normal" in="SourceGraphic" in2="effect1_dropShadow_0_1" result="shape"/>
</filter>
<clipPath id="clip0_0_1">
<rect x="-297.965" y="-131" width="375" height="848" rx="40" fill="white"/>
</clipPath>
</defs>
</svg>
