<svg width="16" height="16" viewBox="0 0 16 16" fill="none" xmlns="http://www.w3.org/2000/svg">
<rect width="16" height="16" fill="#F5F5F5"/>
<g clip-path="url(#clip0_0_1)">
<rect x="-19.9303" y="-434" width="375" height="848" rx="40" fill="white"/>
<g clip-path="url(#clip1_0_1)">
<path d="M11.8431 15.1136C11.4898 15.1136 11.0364 15.0002 10.4698 14.6669L8.47644 13.4869C8.26978 13.3669 7.86978 13.3669 7.66978 13.4869L5.66979 14.6669C4.48979 15.3669 3.79646 15.0869 3.48312 14.8602C3.17646 14.6336 2.69646 14.0536 3.00979 12.7202L3.48312 10.6736C3.53646 10.4602 3.42979 10.0936 3.26979 9.93356L1.61646 8.28022C0.789791 7.45356 0.856458 6.74689 0.969791 6.4002C1.08312 6.05354 1.44312 5.4402 2.58979 5.24687L4.71646 4.89354C4.91646 4.8602 5.20312 4.64687 5.28979 4.46687L6.46979 2.11354C7.00311 1.0402 7.70311 0.880203 8.06978 0.880203C8.43644 0.880203 9.13644 1.0402 9.66978 2.11354L10.8431 4.4602C10.9364 4.6402 11.2231 4.85354 11.4231 4.88687L13.5498 5.2402C14.7031 5.43354 15.0631 6.04687 15.1698 6.39354C15.2764 6.74022 15.3431 7.44689 14.5231 8.27356L12.8698 9.93356C12.7098 10.0936 12.6098 10.4536 12.6564 10.6736L13.1298 12.7202C13.4364 14.0536 12.9631 14.6336 12.6564 14.8602C12.4898 14.9802 12.2231 15.1136 11.8431 15.1136Z" fill="#FF9E00"/>
</g>
</g>
<defs>
<clipPath id="clip0_0_1">
<rect x="-19.9303" y="-434" width="375" height="848" rx="40" fill="white"/>
</clipPath>
<clipPath id="clip1_0_1">
<rect width="16" height="16" fill="white" transform="translate(0.0697021)"/>
</clipPath>
</defs>
</svg>
